<?xml version="1.0"?>
<svg xmlns="http://www.w3.org/2000/svg" viewBox="0 0 24 24" enable-background="new 0 0 24 24">
    <path d="M 5 3 C 3.9 3 3 3.9 3 5 L 3 19 C 3 20.1 3.9 21 5 21 L 19 21 C 20.1 21 21 20.1 21 19 L 21 5 C 21 3.9 20.1 3 19 3 L 5 3 z M 12 7.1875 C 14.4 7.1875 14.90625 8.8125 14.90625 9.8125 C 14.90625 11.0125 13.99375 11.6125 13.59375 11.8125 C 13.99375 12.0125 15.09375 12.7 15.09375 14 C 15.09375 16.4 13 16.6875 12 16.6875 C 9.2 16.6875 8.90625 14.8 8.90625 14 C 8.90625 12.6 9.90625 12.0125 10.40625 11.8125 C 10.00625 11.6125 9.09375 11.0125 9.09375 9.8125 C 9.09375 7.6125 11 7.1875 12 7.1875 z M 12 8.6875 C 11 8.6875 10.90625 9.50625 10.90625 9.90625 C 10.90625 10.30625 11 11.09375 12 11.09375 C 12.9 11.09375 13.09375 10.20625 13.09375 9.90625 C 13.09375 9.50625 13 8.6875 12 8.6875 z M 12 12.59375 C 10.8 12.59375 10.6875 13.70625 10.6875 13.90625 C 10.6875 15.20625 11.8 15.1875 12 15.1875 C 12.6 15.1875 13.3125 14.90625 13.3125 13.90625 C 13.3125 13.80625 13.2 12.59375 12 12.59375 z"/>
</svg>
