<?xml version="1.0"?>
<svg xmlns="http://www.w3.org/2000/svg" viewBox="0 0 24 24" enable-background="new 0 0 24 24">
    <path d="M 5 3 C 3.9 3 3 3.9 3 5 L 3 19 C 3 20.1 3.9 21 5 21 L 19 21 C 20.1 21 21 20.1 21 19 L 21 5 C 21 3.9 20.1 3 19 3 L 5 3 z M 12.1875 7.3125 L 14 7.3125 L 14 13.09375 L 15 13.09375 L 15 14.59375 L 14 14.59375 L 14 16.59375 L 12.1875 16.59375 L 12.1875 14.59375 L 8.40625 14.59375 L 8.3125 13.40625 L 12.1875 7.3125 z M 12.09375 9.90625 L 10.09375 13.09375 L 12.09375 13.09375 L 12.09375 9.90625 z"/>
</svg>
