<?xml version="1.0"?>
<svg xmlns="http://www.w3.org/2000/svg" viewBox="0 0 24 24" enable-background="new 0 0 24 24">
    <path d="M 5 3 C 3.9 3 3 3.9 3 5 L 3 19 C 3 20.1 3.9 21 5 21 L 19 21 C 20.1 21 21 20.1 21 19 L 21 5 C 21 3.9 20.1 3 19 3 L 5 3 z M 13.5 7.1875 L 13.8125 7.1875 L 13.8125 8.6875 L 13.6875 8.6875 C 12.4875 8.6875 10.9875 9.19375 10.6875 11.09375 C 10.7875 10.99375 11.39375 10.3125 12.59375 10.3125 C 15.09375 10.3125 15.1875 13.00625 15.1875 13.40625 C 15.1875 15.60625 13.69375 16.6875 12.09375 16.6875 C 9.79375 16.6875 8.8125 14.8 8.8125 13 L 8.8125 12.3125 C 8.8125 11.1125 9.2 7.2875 13.5 7.1875 z M 12 11.90625 C 11.1 11.90625 10.6875 12.6125 10.6875 12.8125 L 10.6875 13.40625 C 10.6875 14.80625 11.29375 15.40625 12.09375 15.40625 C 13.29375 15.40625 13.40625 13.9875 13.40625 13.6875 C 13.40625 13.2875 13.3 11.90625 12 11.90625 z"/>
</svg>
