<?xml version="1.0"?>
<svg xmlns="http://www.w3.org/2000/svg" viewBox="0 0 24 24" enable-background="new 0 0 24 24">
    <path d="M 5 3 C 3.9 3 3 3.9 3 5 L 3 19 C 3 20.1 3.9 21 5 21 L 19 21 C 20.1 21 21 20.1 21 19 L 21 5 C 21 3.9 20.1 3 19 3 L 5 3 z M 12 7.3125 C 14.1 7.3125 15.09375 8.7875 15.09375 11.1875 L 15.09375 12.8125 C 15.09375 13.5125 15.1 16.6875 12 16.6875 C 8.9 16.6875 8.90625 13.4125 8.90625 12.8125 L 8.90625 11.1875 C 8.90625 8.6875 9.9 7.3125 12 7.3125 z M 12 8.6875 C 10.7 8.6875 10.6875 10.30625 10.6875 10.90625 L 10.6875 13 C 10.6875 14.1 10.9 15.1875 12 15.1875 C 13.1 15.1875 13.3125 14 13.3125 13 L 13.3125 10.90625 C 13.3125 10.40625 13.3 8.6875 12 8.6875 z"/>
</svg>
