<?xml version="1.0"?>
<svg xmlns="http://www.w3.org/2000/svg" viewBox="0 0 24 24" enable-background="new 0 0 24 24">
    <path d="M 5 3 C 3.9 3 3 3.9 3 5 L 3 19 C 3 20.1 3.9 21 5 21 L 19 21 C 20.1 21 21 20.1 21 19 L 21 5 C 21 3.9 20.1 3 19 3 L 5 3 z M 12 7.1875 C 14.4 7.1875 15.09375 9.5 15.09375 11 L 15.09375 11.6875 C 15.09375 16.3875 11.50625 16.6875 10.40625 16.6875 L 10.3125 16.6875 L 10.3125 15.1875 L 10.40625 15.1875 C 13.10625 15.1875 13.2125 13.30625 13.3125 12.90625 C 13.1125 13.10625 12.49375 13.59375 11.59375 13.59375 C 10.79375 13.59375 8.90625 13.2 8.90625 10.5 C 8.90625 9 9.9 7.1875 12 7.1875 z M 12 8.6875 C 10.8 8.6875 10.6875 10.2 10.6875 10.5 C 10.6875 10.7 10.7 12.1875 12 12.1875 C 12.8 12.1875 13.1125 11.60625 13.3125 11.40625 L 13.3125 10.59375 C 13.3125 10.39375 13.2 8.6875 12 8.6875 z"/>
</svg>
