<?xml version="1.0"?>
<svg xmlns="http://www.w3.org/2000/svg" version="1" viewBox="0 0 50 50" enable-background="new 0 0 50 50">
    <path d="M 25 5 C 14 5 5 14 5 25 C 5 36 14 45 25 45 C 36 45 45 36 45 25 C 45 14 36 5 25 5 z M 25 15.6875 C 30.7 15.6875 31.09375 21.19375 31.09375 25.09375 C 31.09375 28.69375 30.8 34.40625 25 34.40625 C 18.7 34.40625 18.90625 27.99375 18.90625 25.09375 C 18.90625 21.19375 19.2 15.6875 25 15.6875 z M 25 17.59375 C 20.5 17.59375 21.1875 24.6 21.1875 25 C 21.1875 25.7 20.7 32.40625 25 32.40625 C 28.2 32.40625 28.8125 28.9 28.8125 25 C 28.8125 24.5 29.5 17.59375 25 17.59375 z"/>
</svg>
